<svg width="32" height="32" viewBox="0 0 32 32" fill="none" xmlns="http://www.w3.org/2000/svg">
  <rect x="0.5" y="0.5" width="31" height="31" rx="7" fill="url(#lg-bg)"/>
  <circle cx="16" cy="16" r="10" fill="none" stroke="rgba(255,255,255,0.08)" stroke-width="0.5"/>
  <circle cx="16" cy="16" r="7" fill="none" stroke="rgba(255,255,255,0.12)" stroke-width="0.6"/>
  <path d="M10.5 10C12.5 8 19.5 8 21.5 10" stroke="rgba(255,255,255,0.2)" stroke-width="0.6" fill="none" stroke-linecap="round"/>
  <path d="M10.5 22C12.5 24 19.5 24 21.5 22" stroke="rgba(255,255,255,0.15)" stroke-width="0.6" fill="none" stroke-linecap="round"/>
  <path d="M11 19.5C12 22 20 22 21 19.5" stroke="rgba(255,255,255,0.1)" stroke-width="0.5" fill="none" stroke-linecap="round"/>
  <circle cx="16" cy="6" r="1.2" fill="rgba(255,255,255,0.25)"/>
  <circle cx="16" cy="26" r="1.2" fill="rgba(255,255,255,0.15)"/>
  <circle cx="6" cy="16" r="1.2" fill="rgba(255,255,255,0.2)"/>
  <circle cx="26" cy="16" r="1.2" fill="rgba(255,255,255,0.2)"/>
  <circle cx="23" cy="12" r="0.8" fill="rgba(255,255,255,0.12)"/>
  <circle cx="9" cy="20" r="0.8" fill="rgba(255,255,255,0.12)"/>
  <circle cx="20" cy="23" r="0.8" fill="rgba(255,255,255,0.08)"/>
  <circle cx="12" cy="9" r="0.8" fill="rgba(255,255,255,0.08)"/>
  <circle cx="16" cy="16" r="4" fill="rgba(255,255,255,0.08)"/>
  <circle cx="16" cy="16" r="2.8" fill="rgba(255,255,255,0.15)"/>
  <circle cx="16" cy="16" r="1.5" fill="white"/>
  <circle cx="16" cy="16" r="0.6" fill="rgba(99,102,241,0.5)"/>
  <defs>
    <linearGradient id="lg-bg" x1="0" y1="0" x2="32" y2="32">
      <stop stop-color="#6366f1"/>
      <stop offset="1" stop-color="#7c3aed"/>
    </linearGradient>
  </defs>
</svg>
